<svg xmlns="http://www.w3.org/2000/svg" xmlns:xlink="http://www.w3.org/1999/xlink" width="0" height="0" style="display:none;"><symbol viewBox="0 0 24 24" id="arrow-left-long-line"><path d="M22.0003 13.0001L22.0004 11.0002L5.82845 11.0002L9.77817 7.05044L8.36396 5.63623L2 12.0002L8.36396 18.3642L9.77817 16.9499L5.8284 13.0002L22.0003 13.0001Z"></path></symbol><symbol viewBox="0 0 24 24" id="arrow-right-long-line"><path d="M1.99974 13.0001L1.9996 11.0002L18.1715 11.0002L14.2218 7.05044L15.636 5.63623L22 12.0002L15.636 18.3642L14.2218 16.9499L18.1716 13.0002L1.99974 13.0001Z"></path></symbol><symbol viewBox="0 0 24 24" id="mail-send-line"><path d="M21 3C21.5523 3 22 3.44772 22 4V20.0066C22 20.5552 21.5447 21 21.0082 21H2.9918C2.44405 21 2 20.5551 2 20.0066V19H20V7.3L12 14.5L2 5.5V4C2 3.44772 2.44772 3 3 3H21ZM8 15V17H0V15H8ZM5 10V12H0V10H5ZM19.5659 5H4.43414L12 11.8093L19.5659 5Z"></path></symbol><symbol viewBox="0 0 24 24" id="phone-line"><path d="M9.36556 10.6821C10.302 12.3288 11.6712 13.698 13.3179 14.6344L14.2024 13.3961C14.4965 12.9845 15.0516 12.8573 15.4956 13.0998C16.9024 13.8683 18.4571 14.3353 20.0789 14.4637C20.599 14.5049 21 14.9389 21 15.4606V19.9234C21 20.4361 20.6122 20.8657 20.1022 20.9181C19.5723 20.9726 19.0377 21 18.5 21C9.93959 21 3 14.0604 3 5.5C3 4.96227 3.02742 4.42771 3.08189 3.89776C3.1343 3.38775 3.56394 3 4.07665 3H8.53942C9.0611 3 9.49513 3.40104 9.5363 3.92109C9.66467 5.54288 10.1317 7.09764 10.9002 8.50444C11.1427 8.9484 11.0155 9.50354 10.6039 9.79757L9.36556 10.6821ZM6.84425 10.0252L8.7442 8.66809C8.20547 7.50514 7.83628 6.27183 7.64727 5H5.00907C5.00303 5.16632 5 5.333 5 5.5C5 12.9558 11.0442 19 18.5 19C18.667 19 18.8337 18.997 19 18.9909V16.3527C17.7282 16.1637 16.4949 15.7945 15.3319 15.2558L13.9748 17.1558C13.4258 16.9425 12.8956 16.6915 12.3874 16.4061L12.3293 16.373C10.3697 15.2587 8.74134 13.6303 7.627 11.6707L7.59394 11.6126C7.30849 11.1044 7.05754 10.5742 6.84425 10.0252Z"></path></symbol><symbol viewBox="0 0 24 24" id="smartphone-line"><path d="M7 4V20H17V4H7ZM6 2H18C18.5523 2 19 2.44772 19 3V21C19 21.5523 18.5523 22 18 22H6C5.44772 22 5 21.5523 5 21V3C5 2.44772 5.44772 2 6 2ZM12 17C12.5523 17 13 17.4477 13 18C13 18.5523 12.5523 19 12 19C11.4477 19 11 18.5523 11 18C11 17.4477 11.4477 17 12 17Z"></path></symbol><symbol viewBox="0 0 24 24" id="earth-fill"><path d="M12 2C17.5228 2 22 6.47715 22 12C22 17.5228 17.5228 22 12 22C6.47715 22 2 17.5228 2 12C2 6.47715 6.47715 2 12 2ZM16.0043 12.8777C15.6589 12.3533 15.4097 11.9746 14.4622 12.1248C12.6717 12.409 12.4732 12.7224 12.3877 13.2375L12.3636 13.3943L12.3393 13.5597C12.2416 14.2428 12.2453 14.5012 12.5589 14.8308C13.8241 16.1582 14.582 17.115 14.8116 17.6746C14.9237 17.9484 15.2119 18.7751 15.0136 19.5927C16.2372 19.1066 17.3156 18.3332 18.1653 17.3559C18.2755 16.9821 18.3551 16.5166 18.3551 15.9518V15.8472C18.3551 14.9247 18.3551 14.504 17.7031 14.1314C17.428 13.9751 17.2227 13.881 17.0582 13.8064C16.691 13.6394 16.4479 13.5297 16.1198 13.0499C16.0807 12.9928 16.0425 12.9358 16.0043 12.8777ZM12 3.83333C9.68259 3.83333 7.59062 4.79858 6.1042 6.34896C6.28116 6.47186 6.43537 6.64453 6.54129 6.88256C6.74529 7.34029 6.74529 7.8112 6.74529 8.22764C6.74488 8.55621 6.74442 8.8672 6.84992 9.09302C6.99443 9.40134 7.6164 9.53227 8.16548 9.64736C8.36166 9.68867 8.56395 9.73083 8.74797 9.78176C9.25405 9.92233 9.64554 10.3765 9.95938 10.7412C10.0896 10.8931 10.2819 11.1163 10.3783 11.1717C10.4286 11.1356 10.59 10.9608 10.6699 10.6735C10.7307 10.4547 10.7134 10.2597 10.6239 10.1543C10.0648 9.49445 10.0952 8.2232 10.268 7.75495C10.5402 7.01606 11.3905 7.07058 12.012 7.11097C12.2438 7.12589 12.4626 7.14023 12.6257 7.11976C13.2482 7.04166 13.4396 6.09538 13.575 5.91C13.8671 5.50981 14.7607 4.9071 15.3158 4.53454C14.3025 4.08382 13.1805 3.83333 12 3.83333Z"></path></symbol><symbol viewBox="0 0 24 24" id="globe-fill"><path d="M13.0003 21H18.0003V23H6.00032V21H11.0003V19.9506C7.70689 19.6236 4.88351 17.6987 3.31641 14.9622L5.05319 13.9697C6.43208 16.3776 9.02674 18 12.0003 18C16.4186 18 20.0003 14.4182 20.0003 9.99995C20.0003 7.02637 18.378 4.43171 15.9701 3.05282L16.9626 1.31604C19.9724 3.03965 22.0003 6.28297 22.0003 9.99995C22.0003 15.1853 18.0536 19.4489 13.0003 19.9506V21ZM12.0003 17C8.13433 17 5.00032 13.8659 5.00032 9.99995C5.00032 6.13396 8.13433 2.99995 12.0003 2.99995C15.8663 2.99995 19.0003 6.13396 19.0003 9.99995C19.0003 13.8659 15.8663 17 12.0003 17Z"></path></symbol><symbol viewBox="0 0 24 24" id="arrow-up-s-line"><path d="M11.9999 10.8284L7.0502 15.7782L5.63599 14.364L11.9999 8L18.3639 14.364L16.9497 15.7782L11.9999 10.8284Z"></path></symbol><symbol viewBox="0 0 24 24" id="calendar-schedule-line"><path d="M7 3V1H9V3H15V1H17V3H21C21.5523 3 22 3.44772 22 4V9H20V5H17V7H15V5H9V7H7V5H4V19H10V21H3C2.44772 21 2 20.5523 2 20V4C2 3.44772 2.44772 3 3 3H7ZM17 12C14.7909 12 13 13.7909 13 16C13 18.2091 14.7909 20 17 20C19.2091 20 21 18.2091 21 16C21 13.7909 19.2091 12 17 12ZM11 16C11 12.6863 13.6863 10 17 10C20.3137 10 23 12.6863 23 16C23 19.3137 20.3137 22 17 22C13.6863 22 11 19.3137 11 16ZM16 13V16.4142L18.2929 18.7071L19.7071 17.2929L18 15.5858V13H16Z"></path></symbol><symbol viewBox="0 0 24 24" id="timer-line"><path d="M17.6177 5.9681L19.0711 4.51472L20.4853 5.92893L19.0319 7.38231C20.2635 8.92199 21 10.875 21 13C21 17.9706 16.9706 22 12 22C7.02944 22 3 17.9706 3 13C3 8.02944 7.02944 4 12 4C14.125 4 16.078 4.73647 17.6177 5.9681ZM12 20C15.866 20 19 16.866 19 13C19 9.13401 15.866 6 12 6C8.13401 6 5 9.13401 5 13C5 16.866 8.13401 20 12 20ZM11 8H13V14H11V8ZM8 1H16V3H8V1Z"></path></symbol><symbol viewBox="0 0 24 24" id="twitter-line"><path d="M15.3499 5.55005C13.7681 5.55005 12.4786 6.81809 12.4504 8.39658L12.4223 9.97162C12.4164 10.3029 12.143 10.5667 11.8117 10.5608C11.7881 10.5604 11.7646 10.5586 11.7413 10.5554L10.1805 10.3426C8.12699 10.0625 6.15883 9.11736 4.27072 7.54411C3.67275 10.8538 4.84 13.1472 7.65342 14.916L9.40041 16.0142C9.68095 16.1906 9.7654 16.561 9.58903 16.8415C9.54861 16.9058 9.49636 16.9619 9.43504 17.0067L7.84338 18.1696C8.78973 18.229 9.68938 18.1875 10.435 18.0387C15.1526 17.0973 18.2897 13.547 18.2897 7.69109C18.2897 7.213 17.2774 5.55005 15.3499 5.55005ZM10.4507 8.3609C10.4983 5.69584 12.6735 3.55005 15.3499 3.55005C16.7132 3.55005 17.9465 4.10683 18.8348 5.0054C19.5462 5.00005 20.1514 5.17991 21.5035 4.35967C21.1693 6.00005 21.0034 6.71201 20.2897 7.69109C20.2897 15.3326 15.5926 19.0489 10.8264 20C7.5587 20.6522 2.80646 19.5815 1.44531 18.1587C2.13874 18.1054 4.95928 17.802 6.58895 16.6092C5.20994 15.6987 -0.278631 12.4681 3.32772 3.78642C5.02119 5.76307 6.73797 7.10855 8.47807 7.82286C9.63548 8.29798 9.91978 8.2885 10.4507 8.3609Z"></path></symbol><symbol viewBox="0 0 24 24" id="twitter-x-line"><path d="M10.4883 14.651L15.25 21H22.25L14.3917 10.5223L20.9308 3H18.2808L13.1643 8.88578L8.75 3H1.75L9.26086 13.0145L2.31915 21H4.96917L10.4883 14.651ZM16.25 19L5.75 5H7.75L18.25 19H16.25Z"></path></symbol><symbol viewBox="0 0 24 24" id="linkedin-fill"><path d="M6.94048 4.99993C6.94011 5.81424 6.44608 6.54702 5.69134 6.85273C4.9366 7.15845 4.07187 6.97605 3.5049 6.39155C2.93793 5.80704 2.78195 4.93715 3.1105 4.19207C3.43906 3.44699 4.18654 2.9755 5.00048 2.99993C6.08155 3.03238 6.94097 3.91837 6.94048 4.99993ZM7.00048 8.47993H3.00048V20.9999H7.00048V8.47993ZM13.3205 8.47993H9.34048V20.9999H13.2805V14.4299C13.2805 10.7699 18.0505 10.4299 18.0505 14.4299V20.9999H22.0005V13.0699C22.0005 6.89993 14.9405 7.12993 13.2805 10.1599L13.3205 8.47993Z"></path></symbol><symbol viewBox="0 0 24 24" id="search-line"><path d="M18.031 16.6168L22.3137 20.8995L20.8995 22.3137L16.6168 18.031C15.0769 19.263 13.124 20 11 20C6.032 20 2 15.968 2 11C2 6.032 6.032 2 11 2C15.968 2 20 6.032 20 11C20 13.124 19.263 15.0769 18.031 16.6168ZM16.0247 15.8748C17.2475 14.6146 18 12.8956 18 11C18 7.1325 14.8675 4 11 4C7.1325 4 4 7.1325 4 11C4 14.8675 7.1325 18 11 18C12.8956 18 14.6146 17.2475 15.8748 16.0247L16.0247 15.8748Z"></path></symbol><symbol viewBox="0 0 24 24" id="menu-line"><path d="M3 4H21V6H3V4ZM3 11H21V13H3V11ZM3 18H21V20H3V18Z"></path></symbol><symbol viewBox="0 0 24 24" id="instagram-line"><path d="M12.001 9C10.3436 9 9.00098 10.3431 9.00098 12C9.00098 13.6573 10.3441 15 12.001 15C13.6583 15 15.001 13.6569 15.001 12C15.001 10.3427 13.6579 9 12.001 9ZM12.001 7C14.7614 7 17.001 9.2371 17.001 12C17.001 14.7605 14.7639 17 12.001 17C9.24051 17 7.00098 14.7629 7.00098 12C7.00098 9.23953 9.23808 7 12.001 7ZM18.501 6.74915C18.501 7.43926 17.9402 7.99917 17.251 7.99917C16.5609 7.99917 16.001 7.4384 16.001 6.74915C16.001 6.0599 16.5617 5.5 17.251 5.5C17.9393 5.49913 18.501 6.0599 18.501 6.74915ZM12.001 4C9.5265 4 9.12318 4.00655 7.97227 4.0578C7.18815 4.09461 6.66253 4.20007 6.17416 4.38967C5.74016 4.55799 5.42709 4.75898 5.09352 5.09255C4.75867 5.4274 4.55804 5.73963 4.3904 6.17383C4.20036 6.66332 4.09493 7.18811 4.05878 7.97115C4.00703 9.0752 4.00098 9.46105 4.00098 12C4.00098 14.4745 4.00753 14.8778 4.05877 16.0286C4.0956 16.8124 4.2012 17.3388 4.39034 17.826C4.5591 18.2606 4.7605 18.5744 5.09246 18.9064C5.42863 19.2421 5.74179 19.4434 6.17187 19.6094C6.66619 19.8005 7.19148 19.9061 7.97212 19.9422C9.07618 19.9939 9.46203 20 12.001 20C14.4755 20 14.8788 19.9934 16.0296 19.9422C16.8117 19.9055 17.3385 19.7996 17.827 19.6106C18.2604 19.4423 18.5752 19.2402 18.9074 18.9085C19.2436 18.5718 19.4445 18.2594 19.6107 17.8283C19.8013 17.3358 19.9071 16.8098 19.9432 16.0289C19.9949 14.9248 20.001 14.5389 20.001 12C20.001 9.52552 19.9944 9.12221 19.9432 7.97137C19.9064 7.18906 19.8005 6.66149 19.6113 6.17318C19.4434 5.74038 19.2417 5.42635 18.9084 5.09255C18.573 4.75715 18.2616 4.55693 17.8271 4.38942C17.338 4.19954 16.8124 4.09396 16.0298 4.05781C14.9258 4.00605 14.5399 4 12.001 4ZM12.001 2C14.7176 2 15.0568 2.01 16.1235 2.06C17.1876 2.10917 17.9135 2.2775 18.551 2.525C19.2101 2.77917 19.7668 3.1225 20.3226 3.67833C20.8776 4.23417 21.221 4.7925 21.476 5.45C21.7226 6.08667 21.891 6.81333 21.941 7.8775C21.9885 8.94417 22.001 9.28333 22.001 12C22.001 14.7167 21.991 15.0558 21.941 16.1225C21.8918 17.1867 21.7226 17.9125 21.476 18.55C21.2218 19.2092 20.8776 19.7658 20.3226 20.3217C19.7668 20.8767 19.2076 21.22 18.551 21.475C17.9135 21.7217 17.1876 21.89 16.1235 21.94C15.0568 21.9875 14.7176 22 12.001 22C9.28431 22 8.94514 21.99 7.87848 21.94C6.81431 21.8908 6.08931 21.7217 5.45098 21.475C4.79264 21.2208 4.23514 20.8767 3.67931 20.3217C3.12348 19.7658 2.78098 19.2067 2.52598 18.55C2.27848 17.9125 2.11098 17.1867 2.06098 16.1225C2.01348 15.0558 2.00098 14.7167 2.00098 12C2.00098 9.28333 2.01098 8.94417 2.06098 7.8775C2.11014 6.8125 2.27848 6.0875 2.52598 5.45C2.78014 4.79167 3.12348 4.23417 3.67931 3.67833C4.23514 3.1225 4.79348 2.78 5.45098 2.525C6.08848 2.2775 6.81348 2.11 7.87848 2.06C8.94514 2.0125 9.28431 2 12.001 2Z"></path></symbol><symbol viewBox="0 0 24 24" id="youtube-line"><path d="M19.6069 6.99482C19.5307 6.69695 19.3152 6.47221 19.0684 6.40288C18.6299 6.28062 16.501 6 12.001 6C7.50098 6 5.37252 6.28073 4.93225 6.40323C4.68776 6.47123 4.4723 6.69593 4.3951 6.99482C4.2863 7.41923 4.00098 9.19595 4.00098 12C4.00098 14.804 4.2863 16.5808 4.3954 17.0064C4.47126 17.3031 4.68676 17.5278 4.93251 17.5968C5.37252 17.7193 7.50098 18 12.001 18C16.501 18 18.6299 17.7194 19.0697 17.5968C19.3142 17.5288 19.5297 17.3041 19.6069 17.0052C19.7157 16.5808 20.001 14.8 20.001 12C20.001 9.2 19.7157 7.41923 19.6069 6.99482ZM21.5442 6.49818C22.001 8.28 22.001 12 22.001 12C22.001 12 22.001 15.72 21.5442 17.5018C21.2897 18.4873 20.547 19.2618 19.6056 19.5236C17.8971 20 12.001 20 12.001 20C12.001 20 6.10837 20 4.39637 19.5236C3.45146 19.2582 2.70879 18.4836 2.45774 17.5018C2.00098 15.72 2.00098 12 2.00098 12C2.00098 12 2.00098 8.28 2.45774 6.49818C2.71227 5.51273 3.45495 4.73818 4.39637 4.47636C6.10837 4 12.001 4 12.001 4C12.001 4 17.8971 4 19.6056 4.47636C20.5505 4.74182 21.2932 5.51636 21.5442 6.49818ZM10.001 15.5V8.5L16.001 12L10.001 15.5Z"></path></symbol><symbol viewBox="0 0 24 24" id="whatsapp-line"><path d="M7.25361 18.4944L7.97834 18.917C9.18909 19.623 10.5651 20 12.001 20C16.4193 20 20.001 16.4183 20.001 12C20.001 7.58172 16.4193 4 12.001 4C7.5827 4 4.00098 7.58172 4.00098 12C4.00098 13.4363 4.37821 14.8128 5.08466 16.0238L5.50704 16.7478L4.85355 19.1494L7.25361 18.4944ZM2.00516 22L3.35712 17.0315C2.49494 15.5536 2.00098 13.8345 2.00098 12C2.00098 6.47715 6.47813 2 12.001 2C17.5238 2 22.001 6.47715 22.001 12C22.001 17.5228 17.5238 22 12.001 22C10.1671 22 8.44851 21.5064 6.97086 20.6447L2.00516 22ZM8.39232 7.30833C8.5262 7.29892 8.66053 7.29748 8.79459 7.30402C8.84875 7.30758 8.90265 7.31384 8.95659 7.32007C9.11585 7.33846 9.29098 7.43545 9.34986 7.56894C9.64818 8.24536 9.93764 8.92565 10.2182 9.60963C10.2801 9.76062 10.2428 9.95633 10.125 10.1457C10.0652 10.2428 9.97128 10.379 9.86248 10.5183C9.74939 10.663 9.50599 10.9291 9.50599 10.9291C9.50599 10.9291 9.40738 11.0473 9.44455 11.1944C9.45903 11.25 9.50521 11.331 9.54708 11.3991C9.57027 11.4368 9.5918 11.4705 9.60577 11.4938C9.86169 11.9211 10.2057 12.3543 10.6259 12.7616C10.7463 12.8783 10.8631 12.9974 10.9887 13.108C11.457 13.5209 11.9868 13.8583 12.559 14.1082L12.5641 14.1105C12.6486 14.1469 12.692 14.1668 12.8157 14.2193C12.8781 14.2457 12.9419 14.2685 13.0074 14.2858C13.0311 14.292 13.0554 14.2955 13.0798 14.2972C13.2415 14.3069 13.335 14.2032 13.3749 14.1555C14.0984 13.279 14.1646 13.2218 14.1696 13.2222V13.2238C14.2647 13.1236 14.4142 13.0888 14.5476 13.097C14.6085 13.1007 14.6691 13.1124 14.7245 13.1377C15.2563 13.3803 16.1258 13.7587 16.1258 13.7587L16.7073 14.0201C16.8047 14.0671 16.8936 14.1778 16.8979 14.2854C16.9005 14.3523 16.9077 14.4603 16.8838 14.6579C16.8525 14.9166 16.7738 15.2281 16.6956 15.3913C16.6406 15.5058 16.5694 15.6074 16.4866 15.6934C16.3743 15.81 16.2909 15.8808 16.1559 15.9814C16.0737 16.0426 16.0311 16.0714 16.0311 16.0714C15.8922 16.159 15.8139 16.2028 15.6484 16.2909C15.391 16.428 15.1066 16.5068 14.8153 16.5218C14.6296 16.5313 14.4444 16.5447 14.2589 16.5347C14.2507 16.5342 13.6907 16.4482 13.6907 16.4482C12.2688 16.0742 10.9538 15.3736 9.85034 14.402C9.62473 14.2034 9.4155 13.9885 9.20194 13.7759C8.31288 12.8908 7.63982 11.9364 7.23169 11.0336C7.03043 10.5884 6.90299 10.1116 6.90098 9.62098C6.89729 9.01405 7.09599 8.4232 7.46569 7.94186C7.53857 7.84697 7.60774 7.74855 7.72709 7.63586C7.85348 7.51651 7.93392 7.45244 8.02057 7.40811C8.13607 7.34902 8.26293 7.31742 8.39232 7.30833Z"></path></symbol><symbol viewBox="0 0 24 24" id="corner-down-right-line"><path d="M4.99989 13.9999L4.99976 5L6.99976 4.99997L6.99986 11.9999L17.1717 12L13.222 8.05024L14.6362 6.63603L21.0001 13L14.6362 19.364L13.222 17.9497L17.1717 14L4.99989 13.9999Z"></path></symbol><symbol viewBox="0 0 24 24" id="tiktok-line"><path d="M11.0004 2V8.41396C10.5947 8.33909 10.1768 8.3 9.75039 8.3C5.96724 8.3 2.90039 11.3668 2.90039 15.15C2.90039 18.9332 5.96724 22 9.75039 22C13.5335 22 16.6004 18.9332 16.6004 15.15V11.4136C17.6366 11.8539 18.7662 12.1 20.0005 12.1H21.0005V6.5H20.0005C18.0966 6.5 16.6004 4.96259 16.6004 3V2H11.0004ZM13.0004 4H14.688C15.0818 6.22009 16.7673 7.99607 19.0005 8.4091V10.0282C17.9624 9.87602 17.0253 9.48645 16.1567 8.905L14.6004 7.86327V15.15C14.6004 17.8286 12.429 20 9.75039 20C7.07181 20 4.90039 17.8286 4.90039 15.15C4.90039 12.4714 7.07181 10.3 9.75039 10.3C9.83431 10.3 9.91769 10.3021 10.0005 10.3063V11.9095C9.91795 11.9032 9.83454 11.9 9.75039 11.9C7.95547 11.9 6.50039 13.3551 6.50039 15.15C6.50039 16.9449 7.95547 18.4 9.75039 18.4C11.5453 18.4 13.0004 16.9449 13.0004 15.15C13.0004 11.4334 12.9992 7.71665 13.0004 4ZM8.50039 15.15C8.50039 14.4596 9.06003 13.9 9.75039 13.9C10.4407 13.9 11.0004 14.4596 11.0004 15.15C11.0004 15.8404 10.4407 16.4 9.75039 16.4C9.06003 16.4 8.50039 15.8404 8.50039 15.15Z"></path></symbol><symbol viewBox="0 0 24 24" id="facebook-circle-fill"><path d="M12.001 2C6.47813 2 2.00098 6.47715 2.00098 12C2.00098 16.9913 5.65783 21.1283 10.4385 21.8785V14.8906H7.89941V12H10.4385V9.79688C10.4385 7.29063 11.9314 5.90625 14.2156 5.90625C15.3097 5.90625 16.4541 6.10156 16.4541 6.10156V8.5625H15.1931C13.9509 8.5625 13.5635 9.33334 13.5635 10.1242V12H16.3369L15.8936 14.8906H13.5635V21.8785C18.3441 21.1283 22.001 16.9913 22.001 12C22.001 6.47715 17.5238 2 12.001 2Z"></path></symbol><symbol viewBox="0 0 24 24" id="arrow-down-s-line"><path d="M11.9999 13.1714L16.9497 8.22168L18.3639 9.63589L11.9999 15.9999L5.63599 9.63589L7.0502 8.22168L11.9999 13.1714Z"></path></symbol><symbol viewBox="0 0 24 24" id="home-4-line"><path d="M19 21H5C4.44772 21 4 20.5523 4 20V11L1 11L11.3273 1.6115C11.7087 1.26475 12.2913 1.26475 12.6727 1.6115L23 11L20 11V20C20 20.5523 19.5523 21 19 21ZM13 19H18V9.15745L12 3.7029L6 9.15745V19H11V13H13V19Z"></path></symbol><symbol viewBox="0 0 24 24" id="close-line"><path d="M11.9997 10.5865L16.9495 5.63672L18.3637 7.05093L13.4139 12.0007L18.3637 16.9504L16.9495 18.3646L11.9997 13.4149L7.04996 18.3646L5.63574 16.9504L10.5855 12.0007L5.63574 7.05093L7.04996 5.63672L11.9997 10.5865Z"></path></symbol><symbol viewBox="0 0 24 24" id="question-answer-line"><path d="M5.45455 15L1 18.5V3C1 2.44772 1.44772 2 2 2H17C17.5523 2 18 2.44772 18 3V15H5.45455ZM4.76282 13H16V4H3V14.3851L4.76282 13ZM8 17H18.2372L20 18.3851V8H21C21.5523 8 22 8.44772 22 9V22.5L17.5455 19H9C8.44772 19 8 18.5523 8 18V17Z"></path></symbol><symbol viewBox="0 0 24 24" id="plug-line"><path d="M13 18V20H19V22H13C11.8954 22 11 21.1046 11 20V18H8C5.79086 18 4 16.2091 4 14V7C4 6.44772 4.44772 6 5 6H8V2H10V6H14V2H16V6H19C19.5523 6 20 6.44772 20 7V14C20 16.2091 18.2091 18 16 18H13ZM8 16H16C17.1046 16 18 15.1046 18 14V11H6V14C6 15.1046 6.89543 16 8 16ZM18 8H6V9H18V8ZM12 14.5C11.4477 14.5 11 14.0523 11 13.5C11 12.9477 11.4477 12.5 12 12.5C12.5523 12.5 13 12.9477 13 13.5C13 14.0523 12.5523 14.5 12 14.5Z"></path></symbol><symbol viewBox="0 0 24 24" id="landscape-line"><path d="M11.2703 12.2162L15 6L23 21H2L9 8L11.2703 12.2162ZM12.3897 14.2378L14.9873 19H19.6667L14.8976 10.058L12.3897 14.2378ZM5.34843 19H12.6516L9 12.2185L5.34843 19ZM5.5 8C4.11929 8 3 6.88071 3 5.5C3 4.11929 4.11929 3 5.5 3C6.88071 3 8 4.11929 8 5.5C8 6.88071 6.88071 8 5.5 8Z"></path></symbol><symbol viewBox="0 0 24 24" id="brush-3-line"><path d="M8 19.9967V14.9967H10V19.9967H19V12.9967H5V19.9967H8ZM4 10.9967H20V7.9967H14V3.9967H10V7.9967H4V10.9967ZM3 20.9967V12.9967H2V6.9967C2 6.44442 2.44772 5.9967 3 5.9967H8V2.9967C8 2.44442 8.44772 1.9967 9 1.9967H15C15.5523 1.9967 16 2.44442 16 2.9967V5.9967H21C21.5523 5.9967 22 6.44442 22 6.9967V12.9967H21V20.9967C21 21.549 20.5523 21.9967 20 21.9967H4C3.44772 21.9967 3 21.549 3 20.9967Z"></path></symbol><symbol viewBox="0 0 24 24" id="navigation-line"><path d="M4.96488 5.09625L8.5107 17.5066L11.5514 11.4253L17.188 9.17062L4.96488 5.09625ZM2.89945 2.29958L21.7052 8.56818C21.9672 8.6555 22.1088 8.93866 22.0215 9.20063C21.975 9.34016 21.8694 9.45214 21.7328 9.50676L13.0002 12.9998L8.57501 21.8501C8.45151 22.0971 8.15118 22.1972 7.90419 22.0737C7.77883 22.011 7.68553 21.8986 7.64703 21.7639L2.26058 2.91129C2.18472 2.64577 2.33846 2.36903 2.60398 2.29316C2.70087 2.26548 2.80386 2.26772 2.89945 2.29958Z"></path></symbol><symbol viewBox="0 0 24 24" id="infinity-line"><path d="M3 12C3 10.067 4.567 8.5 6.5 8.5C7.7035 8.5 8.51959 8.9338 9.19914 9.61336C9.9255 10.3397 10.4851 11.3322 11.1258 12.4856L11.1595 12.5462C11.7605 13.6283 12.4431 14.8573 13.3866 15.8009C14.3946 16.8088 15.7035 17.5 17.5 17.5C20.5376 17.5 23 15.0376 23 12C23 8.96243 20.5376 6.5 17.5 6.5C15.8394 6.5 14.3508 7.2359 13.3423 8.39937C13.7887 9.05406 14.1574 9.70577 14.464 10.2574C15.0681 9.20718 16.2014 8.5 17.5 8.5C19.433 8.5 21 10.067 21 12C21 13.933 19.433 15.5 17.5 15.5C16.2965 15.5 15.4804 15.0662 14.8009 14.3866C14.0745 13.6603 13.5149 12.6678 12.8742 11.5144L12.8405 11.4538C12.2395 10.3717 11.5569 9.14265 10.6134 8.19914C9.60541 7.1912 8.2965 6.5 6.5 6.5C3.46243 6.5 1 8.96243 1 12C1 15.0376 3.46243 17.5 6.5 17.5C8.16056 17.5 9.64923 16.7641 10.6577 15.6006C10.2113 14.9459 9.84262 14.2942 9.53605 13.7426C8.93194 14.7928 7.79856 15.5 6.5 15.5C4.567 15.5 3 13.933 3 12Z"></path></symbol><symbol viewBox="0 0 24 24" id="article-line"><path d="M20 22H4C3.44772 22 3 21.5523 3 21V3C3 2.44772 3.44772 2 4 2H20C20.5523 2 21 2.44772 21 3V21C21 21.5523 20.5523 22 20 22ZM19 20V4H5V20H19ZM7 6H11V10H7V6ZM7 12H17V14H7V12ZM7 16H17V18H7V16ZM13 7H17V9H13V7Z"></path></symbol><symbol viewBox="0 0 24 24" id="contacts-line"><path d="M19 7H24V9H19V7ZM17 12H24V14H17V12ZM20 17H24V19H20V17ZM2 22C2 17.5817 5.58172 14 10 14C14.4183 14 18 17.5817 18 22H16C16 18.6863 13.3137 16 10 16C6.68629 16 4 18.6863 4 22H2ZM10 13C6.685 13 4 10.315 4 7C4 3.685 6.685 1 10 1C13.315 1 16 3.685 16 7C16 10.315 13.315 13 10 13ZM10 11C12.21 11 14 9.21 14 7C14 4.79 12.21 3 10 3C7.79 3 6 4.79 6 7C6 9.21 7.79 11 10 11Z"></path></symbol><symbol viewBox="0 0 24 24" id="window-line"><path d="M21 3C21.5523 3 22 3.44772 22 4V20C22 20.5523 21.5523 21 21 21H3C2.44772 21 2 20.5523 2 20V4C2 3.44772 2.44772 3 3 3H21ZM20 11H4V19H20V11ZM20 5H4V9H20V5ZM11 6V8H9V6H11ZM7 6V8H5V6H7Z"></path></symbol></svg>